{
	"asset":{
		"generator":"Khronos glTF Blender I/O v4.0.44",
		"version":"2.0"
	},
	"scene":0,
	"scenes":[
		{
			"name":"Scene",
			"nodes":[
				0
			]
		}
	],
	"nodes":[
		{
			"mesh":0,
			"name":"0dcf062f88e741beac28166787231306",
			"rotation":[
				0.70710688829422,
				0,
				0,
				0.7071066498756409
			]
		}
	],
	"animations":[
		{
			"channels":[
				{
					"sampler":0,
					"target":{
						"node":0,
						"path":"weights"
					}
				}
			],
			"name":"faceit_bake_test_action",
			"samplers":[
				{
					"input":46,
					"interpolation":"LINEAR",
					"output":47
				}
			]
		}
	],
	"materials":[
		{
			"doubleSided":true,
			"name":"Material.001",
			"pbrMetallicRoughness":{
				"baseColorTexture":{
					"index":0
				},
				"metallicFactor":0,
				"roughnessFactor":0.5
			}
		}
	],
	"meshes":[
		{
			"extras":{
				"targetNames":[
					"aa_ah_ax_01",
					"aa_02",
					"ao_03",
					"ey_eh_uh_04",
					"er_05",
					"y_iy_ih_ix_06",
					"w_uw_07",
					"ow_08",
					"aw_09",
					"oy_10",
					"ay_11",
					"h_12",
					"r_13",
					"l_14",
					"s_z_15",
					"sh_ch_jh_zh_16",
					"th_dh_17",
					"f_v_18",
					"d_t_n_19",
					"k_g_ng_20",
					"p_b_m_21"
				]
			},
			"name":"0dcf062f88e741beac28166787231306",
			"primitives":[
				{
					"attributes":{
						"POSITION":0,
						"NORMAL":1,
						"TEXCOORD_0":2
					},
					"indices":3,
					"material":0,
					"targets":[
						{
							"POSITION":4,
							"NORMAL":5
						},
						{
							"POSITION":6,
							"NORMAL":7
						},
						{
							"POSITION":8,
							"NORMAL":9
						},
						{
							"POSITION":10,
							"NORMAL":11
						},
						{
							"POSITION":12,
							"NORMAL":13
						},
						{
							"POSITION":14,
							"NORMAL":15
						},
						{
							"POSITION":16,
							"NORMAL":17
						},
						{
							"POSITION":18,
							"NORMAL":19
						},
						{
							"POSITION":20,
							"NORMAL":21
						},
						{
							"POSITION":22,
							"NORMAL":23
						},
						{
							"POSITION":24,
							"NORMAL":25
						},
						{
							"POSITION":26,
							"NORMAL":27
						},
						{
							"POSITION":28,
							"NORMAL":29
						},
						{
							"POSITION":30,
							"NORMAL":31
						},
						{
							"POSITION":32,
							"NORMAL":33
						},
						{
							"POSITION":34,
							"NORMAL":35
						},
						{
							"POSITION":36,
							"NORMAL":37
						},
						{
							"POSITION":38,
							"NORMAL":39
						},
						{
							"POSITION":40,
							"NORMAL":41
						},
						{
							"POSITION":42,
							"NORMAL":43
						},
						{
							"POSITION":44,
							"NORMAL":45
						}
					]
				}
			],
			"weights":[
				0,
				0,
				0,
				0,
				0,
				0,
				0,
				0,
				0,
				0,
				0,
				0,
				0,
				0,
				0,
				0,
				0,
				0,
				0,
				0,
				0
			]
		}
	],
	"textures":[
		{
			"sampler":0,
			"source":0
		}
	],
	"images":[
		{
			"mimeType":"image/jpeg",
			"name":"skin",
			"uri":"skin.jpg"
		}
	],
	"accessors":[
		{
			"bufferView":0,
			"componentType":5126,
			"count":1179,
			"max":[
				12.935943603515625,
				6.222412586212158,
				21.050764083862305
			],
			"min":[
				-12.960174560546875,
				-17.897445678710938,
				-12.661449432373047
			],
			"type":"VEC3"
		},
		{
			"bufferView":1,
			"componentType":5126,
			"count":1179,
			"type":"VEC3"
		},
		{
			"bufferView":2,
			"componentType":5126,
			"count":1179,
			"type":"VEC2"
		},
		{
			"bufferView":3,
			"componentType":5123,
			"count":1179,
			"type":"SCALAR"
		},
		{
			"componentType":5126,
			"count":1179,
			"max":[
				0.07231056690216064,
				0.009886503219604492,
				0.7239360809326172
			],
			"min":[
				-0.042588770389556885,
				-0.27243924140930176,
				-0.0026360750198364258
			],
			"sparse":{
				"count":760,
				"indices":{
					"bufferView":4,
					"componentType":5123
				},
				"values":{
					"bufferView":5
				}
			},
			"type":"VEC3"
		},
		{
			"bufferView":6,
			"componentType":5126,
			"count":1179,
			"type":"VEC3"
		},
		{
			"componentType":5126,
			"count":1179,
			"max":[
				0.17126178741455078,
				0.005502462387084961,
				1.4258031845092773
			],
			"min":[
				-0.16156768798828125,
				-0.6408026218414307,
				-0.003778696060180664
			],
			"sparse":{
				"count":787,
				"indices":{
					"bufferView":7,
					"componentType":5123
				},
				"values":{
					"bufferView":8
				}
			},
			"type":"VEC3"
		},
		{
			"bufferView":9,
			"componentType":5126,
			"count":1179,
			"type":"VEC3"
		},
		{
			"componentType":5126,
			"count":1179,
			"max":[
				0.012475132942199707,
				0.03225517272949219,
				0.18953371047973633
			],
			"min":[
				-0.01965034008026123,
				-0.031510353088378906,
				-0.0035810470581054688
			],
			"sparse":{
				"count":668,
				"indices":{
					"bufferView":10,
					"componentType":5123
				},
				"values":{
					"bufferView":11
				}
			},
			"type":"VEC3"
		},
		{
			"bufferView":12,
			"componentType":5126,
			"count":1179,
			"type":"VEC3"
		},
		{
			"componentType":5126,
			"count":1179,
			"max":[
				0.10997724533081055,
				0.6877331733703613,
				0.005727410316467285
			],
			"min":[
				-0.10506844520568848,
				-0.2669861316680908,
				-0.6610841751098633
			],
			"sparse":{
				"count":774,
				"indices":{
					"bufferView":13,
					"componentType":5123
				},
				"values":{
					"bufferView":14
				}
			},
			"type":"VEC3"
		},
		{
			"bufferView":15,
			"componentType":5126,
			"count":1179,
			"type":"VEC3"
		},
		{
			"componentType":5126,
			"count":1179,
			"max":[
				0.041179656982421875,
				0.1253037452697754,
				0.2602214813232422
			],
			"min":[
				-0.03797769546508789,
				-0.27623510360717773,
				-0.23427820205688477
			],
			"sparse":{
				"count":781,
				"indices":{
					"bufferView":16,
					"componentType":5123
				},
				"values":{
					"bufferView":17
				}
			},
			"type":"VEC3"
		},
		{
			"bufferView":18,
			"componentType":5126,
			"count":1179,
			"type":"VEC3"
		},
		{
			"componentType":5126,
			"count":1179,
			"max":[
				0.3742947578430176,
				0.24761271476745605,
				0.00263136625289917
			],
			"min":[
				-0.3875586986541748,
				-0.8442707061767578,
				-0.7166976928710938
			],
			"sparse":{
				"count":774,
				"indices":{
					"bufferView":19,
					"componentType":5123
				},
				"values":{
					"bufferView":20
				}
			},
			"type":"VEC3"
		},
		{
			"bufferView":21,
			"componentType":5126,
			"count":1179,
			"type":"VEC3"
		},
		{
			"componentType":5126,
			"count":1179,
			"max":[
				0.18465757369995117,
				0.27758169174194336,
				0.00263136625289917
			],
			"min":[
				-0.18481504917144775,
				-0.0084991455078125,
				-0.7167978286743164
			],
			"sparse":{
				"count":774,
				"indices":{
					"bufferView":22,
					"componentType":5123
				},
				"values":{
					"bufferView":23
				}
			},
			"type":"VEC3"
		},
		{
			"bufferView":24,
			"componentType":5126,
			"count":1179,
			"type":"VEC3"
		},
		{
			"componentType":5126,
			"count":1179,
			"max":[
				0.5896151065826416,
				0.6243922710418701,
				0.04019594192504883
			],
			"min":[
				-0.5923577547073364,
				-0.018971920013427734,
				-0.5653295516967773
			],
			"sparse":{
				"count":787,
				"indices":{
					"bufferView":25,
					"componentType":5123
				},
				"values":{
					"bufferView":26
				}
			},
			"type":"VEC3"
		},
		{
			"bufferView":27,
			"componentType":5126,
			"count":1179,
			"type":"VEC3"
		},
		{
			"componentType":5126,
			"count":1179,
			"max":[
				0.1688544750213623,
				0.569638729095459,
				0.29004764556884766
			],
			"min":[
				-0.14928388595581055,
				-0.007033348083496094,
				-0.23598194122314453
			],
			"sparse":{
				"count":779,
				"indices":{
					"bufferView":28,
					"componentType":5123
				},
				"values":{
					"bufferView":29
				}
			},
			"type":"VEC3"
		},
		{
			"bufferView":30,
			"componentType":5126,
			"count":1179,
			"type":"VEC3"
		},
		{
			"componentType":5126,
			"count":1179,
			"max":[
				0.24627041816711426,
				0.6052074432373047,
				0.02396690845489502
			],
			"min":[
				-0.24612140655517578,
				-0.0005240440368652344,
				-0.406707763671875
			],
			"sparse":{
				"count":788,
				"indices":{
					"bufferView":31,
					"componentType":5123
				},
				"values":{
					"bufferView":32
				}
			},
			"type":"VEC3"
		},
		{
			"bufferView":33,
			"componentType":5126,
			"count":1179,
			"type":"VEC3"
		},
		{
			"componentType":5126,
			"count":1179,
			"max":[
				0.01577281951904297,
				0.0015892982482910156,
				0.00828784704208374
			],
			"min":[
				-0.019891023635864258,
				-0.4488968849182129,
				-0.24688339233398438
			],
			"sparse":{
				"count":798,
				"indices":{
					"bufferView":34,
					"componentType":5123
				},
				"values":{
					"bufferView":35
				}
			},
			"type":"VEC3"
		},
		{
			"bufferView":36,
			"componentType":5126,
			"count":1179,
			"type":"VEC3"
		},
		{
			"componentType":5126,
			"count":1179,
			"max":[
				0.020793676376342773,
				0.0032978057861328125,
				0.529212474822998
			],
			"min":[
				-0.016906261444091797,
				-0.7486739158630371,
				-0.09822893142700195
			],
			"sparse":{
				"count":789,
				"indices":{
					"bufferView":37,
					"componentType":5123
				},
				"values":{
					"bufferView":38
				}
			},
			"type":"VEC3"
		},
		{
			"bufferView":39,
			"componentType":5126,
			"count":1179,
			"type":"VEC3"
		},
		{
			"componentType":5126,
			"count":1179,
			"max":[
				0.021236419677734375,
				0.2508080005645752,
				0.026944518089294434
			],
			"min":[
				-0.020941495895385742,
				-0.3394277095794678,
				-0.7354998588562012
			],
			"sparse":{
				"count":774,
				"indices":{
					"bufferView":40,
					"componentType":5123
				},
				"values":{
					"bufferView":41
				}
			},
			"type":"VEC3"
		},
		{
			"bufferView":42,
			"componentType":5126,
			"count":1179,
			"type":"VEC3"
		},
		{
			"componentType":5126,
			"count":1179,
			"max":[
				0.0057048797607421875,
				0.0008373260498046875,
				0.06696033477783203
			],
			"min":[
				-0.0045642852783203125,
				-0.3242671489715576,
				-0.28378868103027344
			],
			"sparse":{
				"count":798,
				"indices":{
					"bufferView":43,
					"componentType":5123
				},
				"values":{
					"bufferView":44
				}
			},
			"type":"VEC3"
		},
		{
			"bufferView":45,
			"componentType":5126,
			"count":1179,
			"type":"VEC3"
		},
		{
			"componentType":5126,
			"count":1179,
			"max":[
				0.015869855880737305,
				0.23906612396240234,
				0.00263136625289917
			],
			"min":[
				-0.010585546493530273,
				-0.003124237060546875,
				-0.6259193420410156
			],
			"sparse":{
				"count":774,
				"indices":{
					"bufferView":46,
					"componentType":5123
				},
				"values":{
					"bufferView":47
				}
			},
			"type":"VEC3"
		},
		{
			"bufferView":48,
			"componentType":5126,
			"count":1179,
			"type":"VEC3"
		},
		{
			"componentType":5126,
			"count":1179,
			"max":[
				0.2592822313308716,
				0.32025790214538574,
				0.00263136625289917
			],
			"min":[
				-0.26716339588165283,
				-0.06294536590576172,
				-0.7170076370239258
			],
			"sparse":{
				"count":774,
				"indices":{
					"bufferView":49,
					"componentType":5123
				},
				"values":{
					"bufferView":50
				}
			},
			"type":"VEC3"
		},
		{
			"bufferView":51,
			"componentType":5126,
			"count":1179,
			"type":"VEC3"
		},
		{
			"componentType":5126,
			"count":1179,
			"max":[
				0.013819694519042969,
				0.1426551342010498,
				0.0061026811599731445
			],
			"min":[
				-0.017114758491516113,
				-0.053739070892333984,
				-0.5677261352539062
			],
			"sparse":{
				"count":798,
				"indices":{
					"bufferView":52,
					"componentType":5123
				},
				"values":{
					"bufferView":53
				}
			},
			"type":"VEC3"
		},
		{
			"bufferView":54,
			"componentType":5126,
			"count":1179,
			"type":"VEC3"
		},
		{
			"componentType":5126,
			"count":1179,
			"max":[
				0.19472050666809082,
				0.24370157718658447,
				0.024412870407104492
			],
			"min":[
				-0.2177741527557373,
				-0.4916982650756836,
				-0.7332019805908203
			],
			"sparse":{
				"count":774,
				"indices":{
					"bufferView":55,
					"componentType":5123
				},
				"values":{
					"bufferView":56
				}
			},
			"type":"VEC3"
		},
		{
			"bufferView":57,
			"componentType":5126,
			"count":1179,
			"type":"VEC3"
		},
		{
			"componentType":5126,
			"count":1179,
			"max":[
				0.009272933006286621,
				0.17519795894622803,
				0.002545773983001709
			],
			"min":[
				-0.014511346817016602,
				-0.08723855018615723,
				-0.6311640739440918
			],
			"sparse":{
				"count":787,
				"indices":{
					"bufferView":58,
					"componentType":5123
				},
				"values":{
					"bufferView":59
				}
			},
			"type":"VEC3"
		},
		{
			"bufferView":60,
			"componentType":5126,
			"count":1179,
			"type":"VEC3"
		},
		{
			"componentType":5126,
			"count":1179,
			"max":[
				0.04953479766845703,
				0.07875573635101318,
				0.0059833526611328125
			],
			"min":[
				-0.062270164489746094,
				-0.6592817306518555,
				-0.6192421913146973
			],
			"sparse":{
				"count":787,
				"indices":{
					"bufferView":61,
					"componentType":5123
				},
				"values":{
					"bufferView":62
				}
			},
			"type":"VEC3"
		},
		{
			"bufferView":63,
			"componentType":5126,
			"count":1179,
			"type":"VEC3"
		},
		{
			"componentType":5126,
			"count":1179,
			"max":[
				0.030543923377990723,
				0.2361469268798828,
				0.05015110969543457
			],
			"min":[
				-0.03557908535003662,
				-0.4946708679199219,
				-0.6437573432922363
			],
			"sparse":{
				"count":798,
				"indices":{
					"bufferView":64,
					"componentType":5123
				},
				"values":{
					"bufferView":65
				}
			},
			"type":"VEC3"
		},
		{
			"bufferView":66,
			"componentType":5126,
			"count":1179,
			"type":"VEC3"
		},
		{
			"bufferView":67,
			"componentType":5126,
			"count":671,
			"max":[
				27.958333333333332
			],
			"min":[
				0.041666666666666664
			],
			"type":"SCALAR"
		},
		{
			"bufferView":68,
			"componentType":5126,
			"count":14091,
			"type":"SCALAR"
		}
	],
	"bufferViews":[
		{
			"buffer":0,
			"byteLength":14148,
			"byteOffset":0,
			"target":34962
		},
		{
			"buffer":0,
			"byteLength":14148,
			"byteOffset":14148,
			"target":34962
		},
		{
			"buffer":0,
			"byteLength":9432,
			"byteOffset":28296,
			"target":34962
		},
		{
			"buffer":0,
			"byteLength":2358,
			"byteOffset":37728,
			"target":34963
		},
		{
			"buffer":0,
			"byteLength":1520,
			"byteOffset":40088
		},
		{
			"buffer":0,
			"byteLength":9120,
			"byteOffset":41608
		},
		{
			"buffer":0,
			"byteLength":14148,
			"byteOffset":50728,
			"target":34962
		},
		{
			"buffer":0,
			"byteLength":1574,
			"byteOffset":64876
		},
		{
			"buffer":0,
			"byteLength":9444,
			"byteOffset":66452
		},
		{
			"buffer":0,
			"byteLength":14148,
			"byteOffset":75896,
			"target":34962
		},
		{
			"buffer":0,
			"byteLength":1336,
			"byteOffset":90044
		},
		{
			"buffer":0,
			"byteLength":8016,
			"byteOffset":91380
		},
		{
			"buffer":0,
			"byteLength":14148,
			"byteOffset":99396,
			"target":34962
		},
		{
			"buffer":0,
			"byteLength":1548,
			"byteOffset":113544
		},
		{
			"buffer":0,
			"byteLength":9288,
			"byteOffset":115092
		},
		{
			"buffer":0,
			"byteLength":14148,
			"byteOffset":124380,
			"target":34962
		},
		{
			"buffer":0,
			"byteLength":1562,
			"byteOffset":138528
		},
		{
			"buffer":0,
			"byteLength":9372,
			"byteOffset":140092
		},
		{
			"buffer":0,
			"byteLength":14148,
			"byteOffset":149464,
			"target":34962
		},
		{
			"buffer":0,
			"byteLength":1548,
			"byteOffset":163612
		},
		{
			"buffer":0,
			"byteLength":9288,
			"byteOffset":165160
		},
		{
			"buffer":0,
			"byteLength":14148,
			"byteOffset":174448,
			"target":34962
		},
		{
			"buffer":0,
			"byteLength":1548,
			"byteOffset":188596
		},
		{
			"buffer":0,
			"byteLength":9288,
			"byteOffset":190144
		},
		{
			"buffer":0,
			"byteLength":14148,
			"byteOffset":199432,
			"target":34962
		},
		{
			"buffer":0,
			"byteLength":1574,
			"byteOffset":213580
		},
		{
			"buffer":0,
			"byteLength":9444,
			"byteOffset":215156
		},
		{
			"buffer":0,
			"byteLength":14148,
			"byteOffset":224600,
			"target":34962
		},
		{
			"buffer":0,
			"byteLength":1558,
			"byteOffset":238748
		},
		{
			"buffer":0,
			"byteLength":9348,
			"byteOffset":240308
		},
		{
			"buffer":0,
			"byteLength":14148,
			"byteOffset":249656,
			"target":34962
		},
		{
			"buffer":0,
			"byteLength":1576,
			"byteOffset":263804
		},
		{
			"buffer":0,
			"byteLength":9456,
			"byteOffset":265380
		},
		{
			"buffer":0,
			"byteLength":14148,
			"byteOffset":274836,
			"target":34962
		},
		{
			"buffer":0,
			"byteLength":1596,
			"byteOffset":288984
		},
		{
			"buffer":0,
			"byteLength":9576,
			"byteOffset":290580
		},
		{
			"buffer":0,
			"byteLength":14148,
			"byteOffset":300156,
			"target":34962
		},
		{
			"buffer":0,
			"byteLength":1578,
			"byteOffset":314304
		},
		{
			"buffer":0,
			"byteLength":9468,
			"byteOffset":315884
		},
		{
			"buffer":0,
			"byteLength":14148,
			"byteOffset":325352,
			"target":34962
		},
		{
			"buffer":0,
			"byteLength":1548,
			"byteOffset":339500
		},
		{
			"buffer":0,
			"byteLength":9288,
			"byteOffset":341048
		},
		{
			"buffer":0,
			"byteLength":14148,
			"byteOffset":350336,
			"target":34962
		},
		{
			"buffer":0,
			"byteLength":1596,
			"byteOffset":364484
		},
		{
			"buffer":0,
			"byteLength":9576,
			"byteOffset":366080
		},
		{
			"buffer":0,
			"byteLength":14148,
			"byteOffset":375656,
			"target":34962
		},
		{
			"buffer":0,
			"byteLength":1548,
			"byteOffset":389804
		},
		{
			"buffer":0,
			"byteLength":9288,
			"byteOffset":391352
		},
		{
			"buffer":0,
			"byteLength":14148,
			"byteOffset":400640,
			"target":34962
		},
		{
			"buffer":0,
			"byteLength":1548,
			"byteOffset":414788
		},
		{
			"buffer":0,
			"byteLength":9288,
			"byteOffset":416336
		},
		{
			"buffer":0,
			"byteLength":14148,
			"byteOffset":425624,
			"target":34962
		},
		{
			"buffer":0,
			"byteLength":1596,
			"byteOffset":439772
		},
		{
			"buffer":0,
			"byteLength":9576,
			"byteOffset":441368
		},
		{
			"buffer":0,
			"byteLength":14148,
			"byteOffset":450944,
			"target":34962
		},
		{
			"buffer":0,
			"byteLength":1548,
			"byteOffset":465092
		},
		{
			"buffer":0,
			"byteLength":9288,
			"byteOffset":466640
		},
		{
			"buffer":0,
			"byteLength":14148,
			"byteOffset":475928,
			"target":34962
		},
		{
			"buffer":0,
			"byteLength":1574,
			"byteOffset":490076
		},
		{
			"buffer":0,
			"byteLength":9444,
			"byteOffset":491652
		},
		{
			"buffer":0,
			"byteLength":14148,
			"byteOffset":501096,
			"target":34962
		},
		{
			"buffer":0,
			"byteLength":1574,
			"byteOffset":515244
		},
		{
			"buffer":0,
			"byteLength":9444,
			"byteOffset":516820
		},
		{
			"buffer":0,
			"byteLength":14148,
			"byteOffset":526264,
			"target":34962
		},
		{
			"buffer":0,
			"byteLength":1596,
			"byteOffset":540412
		},
		{
			"buffer":0,
			"byteLength":9576,
			"byteOffset":542008
		},
		{
			"buffer":0,
			"byteLength":14148,
			"byteOffset":551584,
			"target":34962
		},
		{
			"buffer":0,
			"byteLength":2684,
			"byteOffset":565732
		},
		{
			"buffer":0,
			"byteLength":56364,
			"byteOffset":568416
		}
	],
	"samplers":[
		{
			"magFilter":9729,
			"minFilter":9987
		}
	],
	"buffers":[
		{
			"byteLength":624780,
			"uri":"skinnedHead.bin"
		}
	]
}
